<?xml version="1.0" standalone="no"?>
<svg viewBox="0 0 200 200" xmlns="http://www.w3.org/2000/svg">
  <path fill="#FF0066" d="M40.1,-60.8C48.8,-48.9,50.4,-32.9,52.8,-18.8C55.2,-4.6,58.3,7.7,58,22.1C57.8,36.5,54.2,53.1,44,60.4C33.7,67.6,16.9,65.6,2.3,62.4C-12.2,59.2,-24.5,54.8,-38.7,48.9C-52.9,42.9,-69.1,35.3,-74.1,23.3C-79.1,11.2,-72.9,-5.2,-67.5,-21.9C-62,-38.5,-57.2,-55.3,-46.1,-66.4C-34.9,-77.5,-17.5,-82.9,-0.9,-81.7C15.7,-80.5,31.4,-72.7,40.1,-60.8Z" transform="translate(100 100)" />
</svg>
