<svg width="130" height="130" viewBox="0 0 130 130" fill="none" xmlns="http://www.w3.org/2000/svg">
<circle cx="5" cy="5" r="5" fill="white"/>
<circle cx="5" cy="95" r="5" fill="white"/>
<circle cx="65" cy="5" r="5" fill="white"/>
<circle cx="65" cy="95" r="5" fill="white"/>
<circle cx="35" cy="5" r="5" fill="white"/>
<circle cx="35" cy="95" r="5" fill="white"/>
<circle cx="95" cy="5" r="5" fill="white"/>
<circle cx="125" cy="5" r="5" fill="white"/>
<circle cx="95" cy="95" r="5" fill="white"/>
<circle cx="125" cy="95" r="5" fill="white"/>
<circle cx="5" cy="35" r="5" fill="white"/>
<circle cx="5" cy="125" r="5" fill="white"/>
<circle cx="65" cy="35" r="5" fill="white"/>
<circle cx="65" cy="125" r="5" fill="white"/>
<circle cx="35" cy="35" r="5" fill="white"/>
<circle cx="35" cy="125" r="5" fill="white"/>
<circle cx="95" cy="35" r="5" fill="white"/>
<circle cx="125" cy="35" r="5" fill="white"/>
<circle cx="95" cy="125" r="5" fill="white"/>
<circle cx="125" cy="125" r="5" fill="white"/>
<circle cx="5" cy="65" r="5" fill="white"/>
<circle cx="65" cy="65" r="5" fill="white"/>
<circle cx="35" cy="65" r="5" fill="white"/>
<circle cx="95" cy="65" r="5" fill="white"/>
<circle cx="125" cy="65" r="5" fill="white"/>
</svg>
