<svg width="200" height="200" viewBox="0 0 200 200" fill="none" xmlns="http://www.w3.org/2000/svg">
<circle cx="7.69231" cy="7.69231" r="7.69231" fill="#F4F4FE" fill-opacity="0.8"/>
<circle cx="7.69231" cy="146.153" r="7.69231" fill="#F4F4FE" fill-opacity="0.8"/>
<circle cx="99.9999" cy="7.69231" r="7.69231" fill="#F4F4FE" fill-opacity="0.8"/>
<circle cx="99.9999" cy="146.153" r="7.69231" fill="#F4F4FE" fill-opacity="0.8"/>
<circle cx="53.8461" cy="7.69231" r="7.69231" fill="#F4F4FE" fill-opacity="0.8"/>
<circle cx="53.8461" cy="146.153" r="7.69231" fill="#F4F4FE" fill-opacity="0.8"/>
<circle cx="146.154" cy="7.69231" r="7.69231" fill="#F4F4FE" fill-opacity="0.8"/>
<circle cx="192.308" cy="7.69231" r="7.69231" fill="#F4F4FE" fill-opacity="0.8"/>
<circle cx="146.154" cy="146.153" r="7.69231" fill="#F4F4FE" fill-opacity="0.8"/>
<circle cx="192.308" cy="146.153" r="7.69231" fill="#F4F4FE" fill-opacity="0.8"/>
<circle cx="7.69231" cy="53.8466" r="7.69231" fill="#F4F4FE" fill-opacity="0.8"/>
<circle cx="7.69231" cy="192.308" r="7.69231" fill="#F4F4FE" fill-opacity="0.8"/>
<circle cx="99.9999" cy="53.8466" r="7.69231" fill="#F4F4FE" fill-opacity="0.8"/>
<circle cx="99.9999" cy="192.308" r="7.69231" fill="#F4F4FE" fill-opacity="0.8"/>
<circle cx="53.8461" cy="53.8466" r="7.69231" fill="#F4F4FE" fill-opacity="0.8"/>
<circle cx="53.8461" cy="192.308" r="7.69231" fill="#F4F4FE" fill-opacity="0.8"/>
<circle cx="146.154" cy="53.8466" r="7.69231" fill="#F4F4FE" fill-opacity="0.8"/>
<circle cx="192.308" cy="53.8466" r="7.69231" fill="#F4F4FE" fill-opacity="0.8"/>
<circle cx="146.154" cy="192.308" r="7.69231" fill="#F4F4FE" fill-opacity="0.8"/>
<circle cx="192.308" cy="192.308" r="7.69231" fill="#F4F4FE" fill-opacity="0.8"/>
<circle cx="7.69231" cy="100.001" r="7.69231" fill="#F4F4FE" fill-opacity="0.8"/>
<circle cx="99.9999" cy="100.001" r="7.69231" fill="#F4F4FE" fill-opacity="0.8"/>
<circle cx="53.8461" cy="100.001" r="7.69231" fill="#F4F4FE" fill-opacity="0.8"/>
<circle cx="146.154" cy="100.001" r="7.69231" fill="#F4F4FE" fill-opacity="0.8"/>
<circle cx="192.308" cy="100.001" r="7.69231" fill="#F4F4FE" fill-opacity="0.8"/>
</svg>
