<svg width="1200" height="1200" viewBox="0 0 1200 1200" fill="none" xmlns="http://www.w3.org/2000/svg">
<path fill-rule="evenodd" clip-rule="evenodd" d="M587.408 1.72724C715.415 12.9885 815.61 104.817 917.419 184.136C1016.14 261.052 1122.32 335.497 1166.92 453.222C1212.84 574.425 1210.33 712.334 1163.27 833.083C1117.85 949.58 1019.81 1033.43 914.871 1099.82C815.967 1162.39 703.916 1191.72 587.408 1197.41C465.566 1203.36 335.147 1205.08 236.136 1132.98C136.942 1060.75 102.862 933.076 63.5948 815.972C23.7812 697.239 -18.1257 575.845 8.23681 453.334C36.2989 322.925 108.418 203.622 212.894 122.157C319.254 39.2225 453.636 -10.0411 587.408 1.72724Z" fill="#FF00D6"/>
</svg>
